<svg width="764" height="279" viewBox="0 0 764 279" fill="none" xmlns="http://www.w3.org/2000/svg">
<path fill-rule="evenodd" clip-rule="evenodd" d="M110.053 6.00132C137.098 0.0366025 168.158 0.528538 203.415 9.12045L173.218 59.1358C152.802 55.9408 135.778 56.6495 121.898 59.7106C79.2678 69.1124 58.748 102.543 55.5477 131.619C57.3053 176.863 71.6316 198.348 87.3044 208.854C104.455 220.35 130.645 223.84 165.092 217.674C199.999 211.425 238.368 196.124 273.879 177.022C275.58 176.155 277.287 175.235 279.001 174.261C279.702 173.862 280.397 173.466 281.085 173.072C301.317 161.775 320.456 149.335 337.291 136.756L337.123 136.636C344.311 131.116 350.426 125.995 356.617 120.811C364.116 114.531 371.725 108.159 381.484 100.874L381.728 101.054C390.642 94.398 400.288 87.6425 410.508 80.945C416.887 76.8753 423.994 72.5036 432.001 67.7612C433.688 66.7619 435.235 65.747 436.646 64.7175C481.976 38.0768 534.823 14.5727 584.442 5.04895C624.347 -2.61045 666.661 -2.07914 701.234 18.3376C737.314 39.6443 758.483 78.6048 763.39 133.285L763.5 134.512V135.743C763.5 172.233 749.424 214.124 716.931 243.348C683.495 273.421 634.344 286.741 571.555 272.322C568.307 271.747 564.63 270.943 560.557 269.89L590.591 220.143C635.221 228.793 663.17 217.728 680.152 202.455C698.814 185.669 708.185 160.277 708.492 136.932C704.468 94.986 689.544 75.3086 673.267 65.6962C655.319 55.0973 628.82 52.5349 594.809 59.063C553.926 66.9101 508.681 86.663 468.801 109.637C439.562 124.97 423.776 137.878 403.797 154.214C397.258 159.56 390.271 165.273 382.216 171.559C382.212 171.556 382.208 171.553 382.205 171.55C381.841 171.84 381.475 172.131 381.109 172.421C374.473 177.58 367.11 183.124 358.688 189.165C306.346 226.08 237.623 260.565 174.783 271.813C134.043 279.106 90.8894 277.47 56.6805 254.539C21.1931 230.752 2.30924 188.922 0.513746 131.605L0.461914 129.95L0.60895 128.301C4.98453 79.232 39.3006 21.6052 110.053 6.00132Z" fill="black"/>
<path d="M176.5 32C226.833 38.1667 345.1 69.3 389.5 128.5C433.9 187.7 539.167 232.5 585 247.5" stroke="black" stroke-width="10" stroke-dasharray="15 15"/>
</svg>
